<?xml version="1.0" encoding="utf-8"?>
<!-- Generator: Adobe Illustrator 22.0.1, SVG Export Plug-In . SVG Version: 6.00 Build 0)  -->
<svg version="1.1" id="Ebene_1" xmlns="http://www.w3.org/2000/svg" xmlns:xlink="http://www.w3.org/1999/xlink" x="0px" y="0px"
	 viewBox="0 0 425.2 223.9" style="enable-background:new 0 0 425.2 223.9;" xml:space="preserve">
<style type="text/css">
	.st0{fill:#D2DBE5;}
	.st1{fill:#243983;}
	.st2{fill:#24438F;}
	.st3{fill:#FFFFFF;}
	.st4{fill:#3B368B;}
	.st5{clip-path:url(#SVGID_2_);fill:#FFFFFF;}
	.st6{clip-path:url(#SVGID_2_);fill:#3B368B;}
</style>
<rect class="st0" width="425.2" height="223.3"/>
<g>
	<path class="st1" d="M165.1,65.1c-0.7,0-1.4,0-2.2-0.1c-0.8-0.1-1.6-0.2-2.4-0.3c-0.8-0.1-1.6-0.3-2.3-0.5c-0.7-0.2-1.4-0.4-2-0.6
		l0.3-3c0.4,0.2,1,0.4,1.7,0.6c0.7,0.2,1.4,0.3,2.1,0.5c0.7,0.1,1.5,0.3,2.3,0.3c0.8,0.1,1.5,0.1,2.1,0.1c2.2,0,3.8-0.5,5-1.6
		c1.2-1.1,1.8-2.6,1.8-4.6c0-1.7-0.6-3.1-1.7-4.2c-1.1-1.1-2.9-2.1-5.3-3c-1.3-0.6-2.5-1.1-3.4-1.7c-1-0.6-1.8-1.2-2.4-1.9
		c-0.6-0.7-1.1-1.6-1.4-2.5c-0.3-0.9-0.5-2.1-0.5-3.3c0-1.4,0.2-2.7,0.7-3.8c0.5-1.1,1.1-2.1,2-2.9c0.9-0.8,1.9-1.4,3.1-1.9
		c1.2-0.4,2.6-0.7,4.1-0.7c1.1,0,2.2,0.1,3.4,0.2c1.1,0.2,2.4,0.4,3.7,0.7l-0.2,2.9c-1.4-0.3-2.6-0.6-3.7-0.7
		c-1.1-0.1-2.1-0.2-3-0.2c-2,0-3.6,0.6-4.8,1.7c-1.2,1.1-1.8,2.7-1.8,4.6c0,0.8,0.1,1.5,0.4,2.2c0.3,0.6,0.7,1.2,1.2,1.7
		c0.6,0.5,1.2,1,2.1,1.4c0.8,0.5,1.8,0.9,3,1.4c1.4,0.6,2.6,1.2,3.6,1.8c1,0.6,1.8,1.3,2.5,2.1c0.7,0.8,1.1,1.6,1.4,2.6
		c0.3,1,0.5,2.1,0.5,3.4c0,2.9-0.9,5.2-2.6,6.8C170.5,64.2,168.1,65.1,165.1,65.1z"/>
	<path class="st1" d="M180.1,30.5h17.7v3h-14.4v12.2h12.8v3h-12.8v12.7h14.8v3h-18.1V30.5z"/>
	<path class="st1" d="M203.7,30.5h3.3v15.1h15.1V30.5h3.4v33.9h-3.4V48.7H207v15.8h-3.3V30.5z"/>
	<path class="st1" d="M242.9,51.8c-0.5,0.1-1,0.1-1.6,0.1c-0.5,0-1.1,0-1.7,0c-0.6,0-1.2,0-1.8,0c-0.7,0-1.3-0.1-1.8-0.1v12.7h-3.3
		V30.8c1.2-0.2,2.4-0.4,3.6-0.6c1.2-0.1,2.3-0.2,3.5-0.2c4.3,0,7.4,0.9,9.4,2.6c2,1.7,2.9,4.5,2.9,8.4c0,2.7-0.5,4.8-1.5,6.5
		c-1,1.6-2.5,2.8-4.6,3.5l6.5,13.4H249L242.9,51.8z M240,49.1c3.1,0,5.3-0.6,6.6-1.9c1.4-1.3,2-3.3,2-6.2c0-2.8-0.7-4.9-2-6.1
		c-1.3-1.3-3.4-1.9-6.4-1.9c-0.5,0-1.1,0-1.9,0.1c-0.7,0.1-1.5,0.2-2.4,0.3v15.5C237.5,49,238.8,49.1,240,49.1z"/>
	<path class="st1" d="M279.8,64.9c-2.4,0-4.5-0.4-6.3-1.1c-1.8-0.7-3.2-1.7-4.4-3.1c-1.1-1.4-2-3.2-2.5-5.4
		c-0.5-2.2-0.8-4.8-0.8-7.8c0-3.1,0.3-5.7,0.8-7.9c0.6-2.2,1.4-4,2.6-5.4c1.2-1.4,2.7-2.4,4.5-3.1c1.8-0.7,4-1,6.6-1
		c0.8,0,1.8,0.1,3,0.2c1.2,0.1,2.4,0.3,3.5,0.6v2.9c-2.3-0.5-4.3-0.7-6.1-0.7c-2.1,0-3.8,0.3-5.3,0.8c-1.4,0.5-2.6,1.3-3.5,2.5
		c-0.9,1.1-1.6,2.6-1.9,4.5c-0.4,1.8-0.6,4.1-0.6,6.7c0,2.6,0.2,4.8,0.6,6.6c0.4,1.8,1,3.3,1.9,4.4c0.9,1.2,2,2,3.3,2.5
		c1.3,0.5,3,0.8,4.9,0.8c0.4,0,1,0,1.6-0.1c0.6,0,1.3-0.1,2-0.2V47.2h3.2v17.1c-1.5,0.2-2.8,0.4-3.8,0.5
		C281.9,64.9,280.9,64.9,279.8,64.9z"/>
	<path class="st1" d="M304.2,64.9c-2,0-3.8-0.3-5.2-0.8c-1.4-0.5-2.6-1.4-3.5-2.5c-0.9-1.1-1.6-2.6-2-4.3c-0.4-1.7-0.6-3.8-0.6-6.2
		V30.5h3.3v20.5c0,3.8,0.6,6.5,1.9,8.3c1.3,1.7,3.3,2.6,6.1,2.6c2.8,0,4.9-0.8,6.1-2.5c1.2-1.7,1.9-4.5,1.9-8.3V30.5h3.4v20.6
		c0,2.4-0.2,4.4-0.6,6.2c-0.4,1.7-1.1,3.2-2,4.3c-0.9,1.1-2.1,2-3.5,2.5C308,64.7,306.3,64.9,304.2,64.9z"/>
	<path class="st1" d="M327.9,33.6h-8.5v-3.1h20.5v3.1h-8.6v30.9h-3.4V33.6z"/>
</g>
<g>
	<path class="st2" d="M157.8,83.4h1.7v5.7h1.4l3.6-5.7h1.9l-3.7,6l-0.6,0.5v0.1l0.7,0.4l4.1,6.2h-1.9l-3.9-6h-1.5v6h-1.7V83.4z"/>
	<path class="st2" d="M170.2,96.8c-1.5,0-2.3-0.8-2.3-2.5V87h1.7v6.8c0,0.6,0.1,1,0.3,1.2c0.2,0.2,0.5,0.3,0.9,0.3
		c0.4,0,0.7-0.1,1-0.2c0.3-0.1,0.7-0.4,1.2-0.7V87h1.7v9.6h-1.4l-0.1-1H173c-0.6,0.4-1.2,0.7-1.6,0.9
		C171.1,96.7,170.6,96.8,170.2,96.8z"/>
	<path class="st2" d="M176.9,87h1.4l0.1,1h0.1c0.6-0.4,1.2-0.7,1.7-0.9c0.5-0.2,0.9-0.3,1.4-0.3c0.7,0,1.2,0.2,1.6,0.6
		c0.3,0.4,0.5,1,0.5,1.9v7.3H182v-6.8c0-0.6-0.1-1-0.3-1.2c-0.2-0.2-0.5-0.3-0.8-0.3c-0.3,0-0.7,0.1-1.1,0.2
		c-0.4,0.2-0.8,0.4-1.2,0.6v7.4h-1.7V87z"/>
	<path class="st2" d="M188.6,96.7c-2.1,0-3.1-1.6-3.1-4.8c0-1.7,0.4-2.9,1.1-3.8c0.7-0.9,1.7-1.3,3.1-1.3c0.2,0,0.4,0,0.6,0
		c0.2,0,0.4,0.1,0.8,0.1v-4.7h1.6v14.4h-1.5l-0.1-1h-0.1C190.4,96.4,189.6,96.7,188.6,96.7z M189.1,95.5c0.3,0,0.5,0,0.7-0.1
		c0.2-0.1,0.4-0.2,0.6-0.4c0.2-0.2,0.3-0.4,0.4-0.7c0.1-0.3,0.2-0.6,0.2-1v-5c-0.3-0.1-0.5-0.1-0.7-0.2c-0.2,0-0.4,0-0.7,0
		c-0.8,0-1.4,0.3-1.8,0.9c-0.4,0.6-0.6,1.5-0.6,2.9c0,1.3,0.2,2.2,0.5,2.8C187.9,95.2,188.4,95.5,189.1,95.5z"/>
	<path class="st2" d="M198.4,96.7c-1.3,0-2.2-0.4-2.9-1.2c-0.7-0.8-1-2-1-3.6c0-1.7,0.3-3,1-3.8c0.6-0.9,1.6-1.3,2.9-1.3
		c2.1,0,3.1,1.4,3.1,4.2c0,0.3,0,0.6,0,0.8c0,0.2,0,0.4-0.1,0.6h-5.2c0.1,1.1,0.3,1.8,0.6,2.3c0.4,0.5,0.9,0.7,1.7,0.7
		c0.4,0,0.7,0,1.2-0.1c0.4-0.1,0.9-0.2,1.4-0.4l0.1,1.3c-0.4,0.2-0.8,0.3-1.3,0.4C199.3,96.7,198.8,96.7,198.4,96.7z M198.3,88.1
		c-1.3,0-2,1-2.1,3.1h3.7c0-1.1-0.2-1.9-0.4-2.4C199.2,88.3,198.8,88.1,198.3,88.1z"/>
	<path class="st2" d="M203.2,87h1.4l0.1,1h0.1c0.6-0.4,1.2-0.7,1.7-0.9c0.5-0.2,0.9-0.3,1.4-0.3c0.7,0,1.2,0.2,1.6,0.6
		c0.3,0.4,0.5,1,0.5,1.9v7.3h-1.6v-6.8c0-0.6-0.1-1-0.3-1.2c-0.2-0.2-0.5-0.3-0.8-0.3c-0.3,0-0.7,0.1-1.1,0.2
		c-0.4,0.2-0.8,0.4-1.2,0.6v7.4h-1.7V87z"/>
	<path class="st2" d="M214.4,96.8c-1.5,0-2.3-0.8-2.3-2.5V87h1.7v6.8c0,0.6,0.1,1,0.3,1.2c0.2,0.2,0.5,0.3,0.9,0.3
		c0.4,0,0.7-0.1,1-0.2c0.3-0.1,0.7-0.4,1.2-0.7V87h1.7v9.6h-1.4l-0.1-1h-0.1c-0.6,0.4-1.2,0.7-1.6,0.9
		C215.2,96.7,214.8,96.8,214.4,96.8z"/>
	<path class="st2" d="M221.1,87h1.4l0.1,1.2h0.1c0.1-0.1,0.2-0.2,0.4-0.3c0.2-0.1,0.4-0.3,0.6-0.4c0.2-0.1,0.5-0.3,0.8-0.4
		c0.3-0.1,0.5-0.2,0.8-0.3h0.4v1.7H225c-0.5,0.1-0.9,0.2-1.3,0.3c-0.4,0.2-0.7,0.3-1,0.5v7.2h-1.7V87z"/>
	<path class="st2" d="M230.5,96.7c-1.7,0-2.6-0.9-2.6-2.6v-5.7h-1.6V87h1.7l0.2-2.5l1.3-0.2V87h2.3v1.4h-2.3v5.3
		c0,0.6,0.1,1,0.3,1.2c0.2,0.3,0.6,0.4,1,0.4c0.1,0,0.3,0,0.4,0c0.2,0,0.3-0.1,0.5-0.1v1.3C231.3,96.6,230.9,96.7,230.5,96.7z"/>
	<path class="st2" d="M236.8,96.7c-1.3,0-2.2-0.4-2.9-1.2c-0.7-0.8-1-2-1-3.6c0-1.7,0.3-3,1-3.8c0.6-0.9,1.6-1.3,2.8-1.3
		c2.1,0,3.1,1.4,3.1,4.2c0,0.3,0,0.6,0,0.8c0,0.2,0,0.4-0.1,0.6h-5.2c0.1,1.1,0.3,1.8,0.6,2.3c0.4,0.5,0.9,0.7,1.7,0.7
		c0.4,0,0.7,0,1.2-0.1c0.4-0.1,0.9-0.2,1.4-0.4l0.1,1.3c-0.4,0.2-0.8,0.3-1.3,0.4C237.7,96.7,237.2,96.7,236.8,96.7z M236.7,88.1
		c-1.3,0-2,1-2.1,3.1h3.7c0-1.1-0.2-1.9-0.4-2.4C237.7,88.3,237.3,88.1,236.7,88.1z"/>
	<path class="st2" d="M242.5,85c-0.7,0-1-0.3-1-1c0-0.7,0.3-1,1-1c0.7,0,1,0.3,1,1C243.5,84.7,243.2,85,242.5,85z M241.7,87h1.6v9.6
		h-1.6V87z"/>
	<path class="st2" d="M245.6,82.2h1.7v14.4h-1.7V82.2z"/>
</g>
<rect x="150.3" y="108.3" class="st3" width="265.9" height="31.4"/>
<g>
	<path class="st2" d="M161.5,130.8c-1.4,0-2.4-0.6-3.1-1.7c-0.7-1.1-1.1-2.8-1.1-5c0-2.2,0.4-3.9,1.1-5.1c0.7-1.1,1.8-1.7,3.1-1.7
		c1.4,0,2.4,0.6,3.1,1.7c0.7,1.1,1.1,2.8,1.1,5.1c0,2.2-0.4,3.9-1.1,5C163.9,130.2,162.9,130.8,161.5,130.8z M161.5,129.3
		c0.9,0,1.5-0.4,1.9-1.3c0.4-0.9,0.6-2.2,0.6-4c0-1.8-0.2-3.2-0.6-4c-0.4-0.9-1-1.3-1.9-1.3c-0.8,0-1.5,0.4-1.9,1.3
		c-0.4,0.9-0.6,2.2-0.6,4c0,1.8,0.2,3.2,0.6,4C160,128.9,160.6,129.3,161.5,129.3z"/>
	<path class="st2" d="M169.7,119.4L169.7,119.4l-2.2,1.4h-0.2l-0.4-0.8l0.1-0.2l3.3-2.3h1.2v13.2h-1.7V119.4z"/>
	<path class="st2" d="M176.3,117.4h1.5l-2.9,15.3h-1.5L176.3,117.4z"/>
	<path class="st2" d="M179,128.7c0-0.5,0.1-1,0.2-1.5c0.1-0.4,0.3-0.9,0.5-1.3c0.2-0.4,0.5-0.8,0.9-1.1c0.4-0.4,0.8-0.7,1.3-1.1
		c0.4-0.3,0.7-0.5,1-0.8c0.3-0.2,0.5-0.5,0.6-0.7c0.2-0.2,0.3-0.5,0.3-0.7c0.1-0.3,0.1-0.5,0.1-0.8c0-1.3-0.7-2-2.2-2
		c-0.3,0-0.6,0-1,0.1c-0.4,0.1-0.8,0.2-1.2,0.3l-0.2-1.4c0.5-0.2,1.1-0.3,1.5-0.4c0.5-0.1,0.9-0.1,1.4-0.1c2.3,0,3.4,1.1,3.4,3.3
		c0,0.4,0,0.8-0.1,1.2c-0.1,0.4-0.2,0.7-0.5,1.1c-0.2,0.3-0.5,0.7-0.8,1c-0.3,0.3-0.7,0.7-1.2,1c-0.5,0.4-0.8,0.7-1.1,1
		c-0.3,0.3-0.5,0.6-0.7,0.9c-0.2,0.3-0.3,0.6-0.4,0.9c-0.1,0.3-0.1,0.6-0.1,1v0.7h4.9v1.5H179V128.7z"/>
	<path class="st2" d="M191.5,130.8c-1.4,0-2.4-0.6-3.1-1.7c-0.7-1.1-1.1-2.8-1.1-5c0-2.2,0.4-3.9,1.1-5.1c0.7-1.1,1.8-1.7,3.1-1.7
		c1.4,0,2.4,0.6,3.1,1.7c0.7,1.1,1.1,2.8,1.1,5.1c0,2.2-0.4,3.9-1.1,5C193.9,130.2,192.9,130.8,191.5,130.8z M191.5,129.3
		c0.9,0,1.5-0.4,1.9-1.3c0.4-0.9,0.6-2.2,0.6-4c0-1.8-0.2-3.2-0.6-4c-0.4-0.9-1-1.3-1.9-1.3c-0.8,0-1.5,0.4-1.9,1.3
		c-0.4,0.9-0.6,2.2-0.6,4c0,1.8,0.2,3.2,0.6,4C190,128.9,190.6,129.3,191.5,129.3z"/>
	<path class="st2" d="M199.7,119.4L199.7,119.4l-2.2,1.4h-0.2l-0.4-0.8l0.1-0.2l3.3-2.3h1.2v13.2h-1.7V119.4z"/>
	<path class="st2" d="M207.5,130.6c-0.6,0-1.1-0.1-1.6-0.2c-0.5-0.2-0.9-0.4-1.2-0.7c-0.3-0.3-0.6-0.6-0.8-1
		c-0.2-0.4-0.3-0.9-0.3-1.4c0-0.8,0.2-1.5,0.5-2.1c0.3-0.6,0.8-1,1.5-1.4c-0.5-0.3-1-0.7-1.2-1.2c-0.3-0.5-0.4-1.2-0.4-2
		c0-1,0.3-1.9,0.9-2.5c0.6-0.6,1.5-0.9,2.5-0.9c1.1,0,1.9,0.3,2.5,0.9c0.6,0.6,0.9,1.4,0.9,2.5c0,0.8-0.1,1.4-0.4,1.9
		c-0.3,0.5-0.7,0.9-1.3,1.3c0.6,0.3,1.1,0.7,1.5,1.2c0.4,0.5,0.5,1.2,0.5,2.1c0,1.1-0.3,2-1,2.6
		C209.6,130.3,208.6,130.6,207.5,130.6z M207,124.4c-0.6,0.3-1,0.7-1.3,1.1c-0.3,0.4-0.4,1-0.4,1.7c0,0.7,0.2,1.3,0.6,1.7
		c0.4,0.4,0.9,0.6,1.6,0.6c0.7,0,1.2-0.2,1.6-0.6c0.4-0.4,0.6-0.9,0.6-1.6c0-0.4-0.1-0.8-0.2-1c-0.1-0.3-0.3-0.5-0.5-0.8
		c-0.2-0.2-0.5-0.4-0.8-0.6c-0.3-0.2-0.7-0.3-1.1-0.4L207,124.4z M205.5,120.7c0,0.7,0.2,1.2,0.6,1.6c0.4,0.4,1,0.7,1.8,0.9
		c0.5-0.3,0.9-0.6,1.2-1c0.2-0.4,0.4-1,0.4-1.6c0-0.7-0.2-1.2-0.5-1.6c-0.3-0.4-0.8-0.6-1.4-0.6c-0.6,0-1.1,0.2-1.4,0.6
		C205.7,119.4,205.5,120,205.5,120.7z"/>
	<path class="st2" d="M226.9,130.7c-1.7,0-2.6-0.9-2.6-2.6v-5.7h-1.6V121h1.7l0.2-2.5l1.3-0.2v2.7h2.3v1.4H226v5.3
		c0,0.6,0.1,1,0.3,1.2c0.2,0.3,0.6,0.4,1,0.4c0.1,0,0.3,0,0.4,0c0.2,0,0.3-0.1,0.5-0.1v1.3C227.8,130.6,227.3,130.7,226.9,130.7z"/>
	<path class="st2" d="M232,130.8c-1.5,0-2.3-0.8-2.3-2.5V121h1.7v6.8c0,0.6,0.1,1,0.3,1.2c0.2,0.2,0.5,0.3,0.9,0.3
		c0.4,0,0.7-0.1,1-0.2c0.3-0.1,0.7-0.4,1.2-0.7V121h1.7v9.6H235l-0.1-1h-0.1c-0.6,0.4-1.2,0.7-1.6,0.9
		C232.8,130.7,232.4,130.8,232,130.8z"/>
	<path class="st2" d="M242.2,130.7c-1.3,0-2.2-0.4-2.9-1.2c-0.7-0.8-1-2-1-3.6c0-1.7,0.3-3,1-3.8c0.6-0.9,1.6-1.3,2.8-1.3
		c2.1,0,3.1,1.4,3.1,4.2c0,0.3,0,0.6,0,0.8c0,0.2,0,0.4-0.1,0.6H240c0.1,1.1,0.3,1.8,0.6,2.3c0.4,0.5,0.9,0.7,1.7,0.7
		c0.4,0,0.7,0,1.2-0.1c0.4-0.1,0.9-0.2,1.4-0.4l0.1,1.3c-0.4,0.2-0.8,0.3-1.3,0.4C243.1,130.7,242.6,130.7,242.2,130.7z
		 M242.1,122.1c-1.3,0-2,1-2.1,3.1h3.7c0-1.1-0.2-1.9-0.4-2.4C243,122.3,242.6,122.1,242.1,122.1z"/>
	<path class="st2" d="M246,121.1V121h1.7l2,7.1l0.2,1h0.1l0.2-1l2-7.1h1.7v0.1l-3,9.5h-2L246,121.1z"/>
	<path class="st2" d="M255.3,124.9h4.3v1.3h-4.3V124.9z"/>
	<path class="st2" d="M263.9,130.8c-0.4,0-0.8,0-1.2-0.1c-0.4-0.1-0.9-0.2-1.4-0.3v-1.3c0.4,0.1,0.8,0.2,1.2,0.3
		c0.4,0.1,0.9,0.1,1.3,0.1c0.5,0,0.9-0.1,1.2-0.4c0.3-0.3,0.4-0.6,0.4-1.1c0-0.4-0.1-0.8-0.3-1c-0.2-0.2-0.6-0.4-1.1-0.6
		c-0.3-0.1-0.6-0.1-0.9-0.2s-0.6-0.2-0.8-0.4c-0.2-0.2-0.5-0.5-0.6-0.8c-0.2-0.3-0.2-0.8-0.2-1.4c0-0.9,0.3-1.6,0.8-2.1
		c0.5-0.5,1.2-0.7,2.2-0.7c0.3,0,0.7,0,1,0.1c0.4,0.1,0.8,0.1,1.2,0.2v1.3c-0.5-0.1-0.9-0.2-1.1-0.2c-0.3,0-0.5-0.1-0.8-0.1
		c-0.5,0-1,0.1-1.2,0.4c-0.3,0.3-0.4,0.6-0.4,1.1c0,0.3,0,0.5,0.1,0.7c0.1,0.2,0.2,0.3,0.3,0.4c0.1,0.1,0.3,0.2,0.5,0.3
		c0.2,0.1,0.4,0.1,0.6,0.2c0.4,0.1,0.7,0.2,1,0.3c0.3,0.1,0.6,0.3,0.8,0.5c0.2,0.2,0.4,0.5,0.5,0.8c0.1,0.3,0.2,0.7,0.2,1.2
		c0,0.9-0.3,1.6-0.8,2.1C265.6,130.5,264.8,130.8,263.9,130.8z"/>
	<path class="st2" d="M270.5,130.7c-0.7,0-1.3-0.2-1.7-0.7c-0.4-0.5-0.6-1.1-0.6-1.9c0-1.8,1.1-2.8,3.4-2.9l1.7-0.1v-0.8
		c0-0.8-0.1-1.3-0.4-1.6c-0.3-0.3-0.8-0.5-1.5-0.5c-0.1,0-0.3,0-0.5,0c-0.2,0-0.4,0-0.6,0.1c-0.2,0-0.4,0.1-0.6,0.1
		c-0.2,0-0.4,0.1-0.6,0.1l-0.1-1.3c0.5-0.1,0.9-0.2,1.4-0.2c0.5-0.1,0.9-0.1,1.3-0.1c1.1,0,1.9,0.2,2.5,0.7c0.5,0.5,0.8,1.2,0.8,2.3
		v6.8h-1.4l-0.2-1.2h-0.1c-0.4,0.3-0.8,0.6-1.2,0.9C271.6,130.5,271.1,130.7,270.5,130.7z M271.1,129.4c0.2,0,0.4,0,0.6-0.1
		c0.2-0.1,0.4-0.2,0.6-0.3c0.2-0.1,0.4-0.2,0.5-0.3c0.2-0.1,0.3-0.2,0.5-0.3v-2.3l-1.4,0.1c-0.7,0.1-1.3,0.2-1.6,0.5
		c-0.3,0.3-0.5,0.7-0.5,1.2c0,0.5,0.1,0.8,0.3,1.1C270.4,129.2,270.7,129.4,271.1,129.4z"/>
	<path class="st2" d="M278.9,130.7c-0.7,0-1.3-0.2-1.7-0.7c-0.4-0.5-0.6-1.1-0.6-1.9c0-1.8,1.1-2.8,3.4-2.9l1.7-0.1v-0.8
		c0-0.8-0.1-1.3-0.4-1.6c-0.3-0.3-0.8-0.5-1.5-0.5c-0.1,0-0.3,0-0.5,0c-0.2,0-0.4,0-0.6,0.1c-0.2,0-0.4,0.1-0.6,0.1
		c-0.2,0-0.4,0.1-0.6,0.1l-0.1-1.3c0.5-0.1,0.9-0.2,1.4-0.2c0.5-0.1,0.9-0.1,1.3-0.1c1.1,0,1.9,0.2,2.5,0.7c0.5,0.5,0.8,1.2,0.8,2.3
		v6.8h-1.4l-0.2-1.2h-0.1c-0.4,0.3-0.8,0.6-1.2,0.9C279.9,130.5,279.4,130.7,278.9,130.7z M279.5,129.4c0.2,0,0.4,0,0.6-0.1
		c0.2-0.1,0.4-0.2,0.6-0.3c0.2-0.1,0.4-0.2,0.5-0.3c0.2-0.1,0.3-0.2,0.5-0.3v-2.3l-1.4,0.1c-0.7,0.1-1.3,0.2-1.6,0.5
		c-0.3,0.3-0.5,0.7-0.5,1.2c0,0.5,0.1,0.8,0.3,1.1C278.7,129.2,279,129.4,279.5,129.4z"/>
	<path class="st2" d="M285.4,121h1.4l0.1,1.2h0.1c0.1-0.1,0.2-0.2,0.4-0.3c0.2-0.1,0.4-0.3,0.6-0.4c0.2-0.1,0.5-0.3,0.8-0.4
		c0.3-0.1,0.5-0.2,0.8-0.3h0.4v1.7h-0.7c-0.5,0.1-0.9,0.2-1.3,0.3c-0.4,0.2-0.7,0.3-1,0.5v7.2h-1.7V121z"/>
	<path class="st2" d="M291.5,130.6c-0.7,0-1-0.3-1-1c0-0.7,0.3-1,1-1c0.7,0,1.1,0.3,1.1,1C292.6,130.3,292.2,130.6,291.5,130.6z"/>
	<path class="st2" d="M297.3,130.7c-2.1,0-3.1-1.6-3.1-4.8c0-1.7,0.4-2.9,1.1-3.8c0.7-0.9,1.7-1.3,3.1-1.3c0.2,0,0.4,0,0.6,0
		c0.2,0,0.4,0.1,0.8,0.1v-4.7h1.6v14.4h-1.5l-0.1-1h-0.1C299.1,130.4,298.3,130.7,297.3,130.7z M297.8,129.5c0.3,0,0.5,0,0.7-0.1
		c0.2-0.1,0.4-0.2,0.6-0.4c0.2-0.2,0.3-0.4,0.4-0.7c0.1-0.3,0.2-0.6,0.2-1v-5c-0.3-0.1-0.5-0.1-0.7-0.2c-0.2,0-0.4,0-0.7,0
		c-0.8,0-1.4,0.3-1.8,0.9c-0.4,0.6-0.6,1.5-0.6,2.9c0,1.3,0.2,2.2,0.5,2.8C296.7,129.2,297.1,129.5,297.8,129.5z"/>
	<path class="st2" d="M307.1,130.7c-1.3,0-2.2-0.4-2.9-1.2c-0.7-0.8-1-2-1-3.6c0-1.7,0.3-3,1-3.8c0.6-0.9,1.6-1.3,2.8-1.3
		c2.1,0,3.1,1.4,3.1,4.2c0,0.3,0,0.6,0,0.8c0,0.2,0,0.4-0.1,0.6h-5.2c0.1,1.1,0.3,1.8,0.6,2.3c0.4,0.5,0.9,0.7,1.7,0.7
		c0.4,0,0.7,0,1.2-0.1c0.4-0.1,0.9-0.2,1.4-0.4l0.1,1.3c-0.4,0.2-0.8,0.3-1.3,0.4C308,130.7,307.5,130.7,307.1,130.7z M307,122.1
		c-1.3,0-2,1-2.1,3.1h3.7c0-1.1-0.2-1.9-0.4-2.4C308,122.3,307.6,122.1,307,122.1z"/>
	<path class="st2" d="M314.2,117.4h1.5l-2.8,15.3h-1.5L314.2,117.4z"/>
	<path class="st2" d="M319.2,130.7c-0.3,0-0.7,0-1-0.1c-0.3,0-0.7-0.1-1-0.2v-1.3h0.1c0.2,0.1,0.5,0.1,0.8,0.2
		c0.3,0,0.6,0.1,0.9,0.1c1.7,0,2.6-0.8,2.6-2.4c0-0.9-0.2-1.5-0.7-2c-0.5-0.4-1.2-0.6-2.3-0.6h-0.4v-1.3h0.4c1.8,0,2.7-0.8,2.7-2.4
		c0-1.5-0.7-2.2-2.2-2.2c-0.2,0-0.5,0-0.8,0.1c-0.3,0-0.6,0.1-1,0.2h-0.2l-0.1-1.3c0.7-0.2,1.4-0.3,2.1-0.3c1.2,0,2.1,0.3,2.8,0.8
		c0.6,0.6,0.9,1.4,0.9,2.5c0,0.9-0.2,1.6-0.6,2.1c-0.4,0.5-0.9,0.9-1.6,1.1v0.1c0.8,0.2,1.4,0.6,1.9,1.1c0.4,0.6,0.6,1.3,0.6,2.3
		c0,1.1-0.4,2-1.1,2.6C321.5,130.4,320.5,130.7,319.2,130.7z"/>
	<path class="st2" d="M329.1,130.8c-1.4,0-2.4-0.6-3.1-1.7c-0.7-1.1-1.1-2.8-1.1-5c0-2.2,0.4-3.9,1.1-5.1c0.7-1.1,1.8-1.7,3.1-1.7
		c1.4,0,2.4,0.6,3.1,1.7c0.7,1.1,1.1,2.8,1.1,5.1c0,2.2-0.3,3.9-1.1,5C331.5,130.2,330.5,130.8,329.1,130.8z M329.1,129.3
		c0.9,0,1.5-0.4,1.9-1.3c0.4-0.9,0.6-2.2,0.6-4c0-1.8-0.2-3.2-0.6-4c-0.4-0.9-1-1.3-1.9-1.3c-0.8,0-1.5,0.4-1.9,1.3
		c-0.4,0.9-0.6,2.2-0.6,4c0,1.8,0.2,3.2,0.6,4C327.6,128.9,328.2,129.3,329.1,129.3z"/>
	<path class="st2" d="M338.8,130.6c-0.6,0-1.1-0.1-1.6-0.2c-0.5-0.2-0.9-0.4-1.2-0.7c-0.3-0.3-0.6-0.6-0.8-1
		c-0.2-0.4-0.3-0.9-0.3-1.4c0-0.8,0.2-1.5,0.5-2.1c0.3-0.6,0.8-1,1.5-1.4c-0.5-0.3-1-0.7-1.2-1.2c-0.3-0.5-0.4-1.2-0.4-2
		c0-1,0.3-1.9,0.9-2.5c0.6-0.6,1.5-0.9,2.5-0.9c1.1,0,1.9,0.3,2.5,0.9c0.6,0.6,0.9,1.4,0.9,2.5c0,0.8-0.1,1.4-0.4,1.9
		c-0.3,0.5-0.7,0.9-1.3,1.3c0.6,0.3,1.1,0.7,1.5,1.2c0.4,0.5,0.5,1.2,0.5,2.1c0,1.1-0.3,2-1,2.6
		C340.9,130.3,339.9,130.6,338.8,130.6z M338.3,124.4c-0.6,0.3-1,0.7-1.3,1.1c-0.3,0.4-0.4,1-0.4,1.7c0,0.7,0.2,1.3,0.6,1.7
		c0.4,0.4,0.9,0.6,1.6,0.6c0.7,0,1.2-0.2,1.6-0.6c0.4-0.4,0.6-0.9,0.6-1.6c0-0.4-0.1-0.8-0.2-1c-0.1-0.3-0.3-0.5-0.5-0.8
		c-0.2-0.2-0.5-0.4-0.8-0.6c-0.3-0.2-0.7-0.3-1.1-0.4L338.3,124.4z M336.8,120.7c0,0.7,0.2,1.2,0.6,1.6c0.4,0.4,1,0.7,1.8,0.9
		c0.5-0.3,0.9-0.6,1.2-1c0.2-0.4,0.4-1,0.4-1.6c0-0.7-0.2-1.2-0.5-1.6c-0.3-0.4-0.8-0.6-1.4-0.6c-0.6,0-1.1,0.2-1.4,0.6
		C337,119.4,336.8,120,336.8,120.7z"/>
	<path class="st2" d="M348.4,130.8c-1.4,0-2.4-0.6-3.1-1.7c-0.7-1.1-1.1-2.8-1.1-5c0-2.2,0.4-3.9,1.1-5.1c0.7-1.1,1.8-1.7,3.1-1.7
		c1.4,0,2.4,0.6,3.1,1.7c0.7,1.1,1.1,2.8,1.1,5.1c0,2.2-0.3,3.9-1.1,5C350.8,130.2,349.8,130.8,348.4,130.8z M348.4,129.3
		c0.9,0,1.5-0.4,1.9-1.3c0.4-0.9,0.6-2.2,0.6-4c0-1.8-0.2-3.2-0.6-4c-0.4-0.9-1-1.3-1.9-1.3c-0.8,0-1.5,0.4-1.9,1.3
		c-0.4,0.9-0.6,2.2-0.6,4c0,1.8,0.2,3.2,0.6,4C346.9,128.9,347.5,129.3,348.4,129.3z"/>
</g>
<rect x="8.9" y="7.2" class="st4" width="132.5" height="132.5"/>
<polygon class="st3" points="114.4,92.9 131.2,23.9 118.4,23.9 108.9,66.7 104.8,49.7 91.7,49.7 103,92.9 "/>
<polygon class="st3" points="33,93.2 46.6,93.2 46.6,47.1 54.5,47.1 54.5,32.8 24.2,32.8 24.2,47.2 33,47.2 "/>
<rect x="57.4" y="32.8" class="st3" width="13.4" height="14.3"/>
<rect x="76.2" y="32.8" class="st3" width="13.4" height="14.3"/>
<g>
	<defs>
		<rect id="SVGID_1_" width="425.2" height="223.9"/>
	</defs>
	<clipPath id="SVGID_2_">
		<use xlink:href="#SVGID_1_"  style="overflow:visible;"/>
	</clipPath>
	<path class="st5" d="M69.5,93.2h20.1V49.7H76.1V80h-2.5c-2.3,0-2.8-1.2-2.8-2.8V49.7H57.3v30.1C57.3,89.8,62.1,93.2,69.5,93.2"/>
	<path class="st5" d="M40.8,100.1L37.1,120h3.3l0.6-4.4h3.8l0.6,4.4h3.3L45,100.1H40.8z M41.5,112.7l1.4-8.6h0.1l1.4,8.6H41.5z"/>
	<path class="st5" d="M90.9,100.1L87.2,120h3.3l0.6-4.4h3.8l0.6,4.4h3.3l-3.7-19.9H90.9z M91.6,112.7l1.4-8.6H93l1.4,8.6H91.6z"/>
	<polygon class="st5" points="80.4,100.1 77,100.1 77,120 85.8,120 85.8,117.1 80.4,117.1 	"/>
	<path class="st5" d="M119.1,100.1H114V120h5.1c3.5,0,5.4-1.9,5.4-6v-7.9C124.5,102.1,122.6,100.1,119.1,100.1 M121,114.4
		c0,2.1-0.6,2.8-2.5,2.8h-1.2v-14.3h1.2c1.8,0,2.5,0.7,2.5,2.8V114.4z"/>
	<path class="st5" d="M28.9,104.8c0-1.2,0.6-2,1.7-2c0.8,0,1.7,0.5,1.8,2.2l3.3-0.4c-0.3-2.8-2-4.8-4.7-4.8c-3.4,0-5.3,1.8-5.3,5
		c0,5.7,7,6.8,7,10.7c0,1.2-0.8,1.8-2,1.8c-1.1,0-1.9-1-2-3l-3.3,0.5c0.1,3,2,5.5,5.1,5.5c3.2,0,5.4-1.8,5.4-5.1
		C35.8,109.8,28.9,108.2,28.9,104.8"/>
	<path class="st5" d="M74.3,106c0-4.2-2-5.9-5.8-5.9h-4.8V120h3.4v-8.2c0.6,0,1.3,0,1.8-0.1l2.4,8.3h3.5l-2.9-9
		C73,110.5,74.3,109.2,74.3,106 M68.3,109.1h-1.2v-6.1h1.2c1.9,0,2.5,0.7,2.5,3.1C70.8,108.4,70.1,109.1,68.3,109.1"/>
	<path class="st5" d="M53.7,100.1L50.1,120h3.3l0.6-4.4h3.8l0.6,4.4h3.3L58,100.1H53.7z M54.5,112.7l1.4-8.6h0.1l1.4,8.6H54.5z"/>
	<polygon class="st5" points="108.2,111.5 108.1,111.5 104,100.1 100.8,100.1 100.8,120 103.9,120 103.9,107.6 103.9,107.6 
		108.3,120 111.3,120 111.3,100.1 108.2,100.1 	"/>
	<rect x="8.9" y="148.7" class="st6" width="407.4" height="65.7"/>
</g>
<g>
	<path class="st3" d="M28.5,166.6h3.4v13.1h4.9l8.9-13.1h3.9l-9.1,13.3l-1.3,1v0.2l1.4,1l9.7,14.1h-3.9L37,182.6h-5.1v13.6h-3.4
		V166.6z"/>
	<path class="st3" d="M58.7,196.6c-3.6,0-5.4-1.9-5.4-5.8v-16.2h3.4v15.2c0,1.4,0.2,2.4,0.7,3c0.5,0.6,1.3,0.9,2.5,0.9
		c1.1,0,2.3-0.2,3.5-0.7c1.2-0.5,2.4-1,3.6-1.7v-16.6h3.4v21.6h-2.8l-0.2-2.5h-0.2c-1,0.5-1.8,0.9-2.6,1.3c-0.7,0.4-1.4,0.7-2.1,0.9
		c-0.6,0.2-1.3,0.4-1.9,0.5C60,196.5,59.3,196.6,58.7,196.6z"/>
	<path class="st3" d="M76.4,174.6h2.8l0.2,2.4h0.2c0.9-0.5,1.8-0.9,2.6-1.3c0.8-0.4,1.5-0.7,2.2-0.9c0.7-0.2,1.3-0.4,1.9-0.5
		c0.6-0.1,1.2-0.2,1.8-0.2c1.8,0,3.1,0.5,4,1.4c0.9,0.9,1.3,2.4,1.3,4.4v16.2H90V181c0-1.4-0.3-2.5-0.8-3.1
		c-0.5-0.6-1.3-0.9-2.4-0.9c-1,0-2,0.2-3.3,0.6c-1.2,0.4-2.5,1-3.8,1.7v16.8h-3.4V174.6z"/>
	<path class="st3" d="M106.6,196.6c-2.7,0-4.8-0.9-6.2-2.7c-1.4-1.8-2.1-4.6-2.1-8.3c0-3.8,0.9-6.6,2.7-8.5c1.8-1.9,4.3-2.9,7.4-2.9
		c0.8,0,1.6,0,2.3,0.1c0.7,0.1,1.5,0.2,2.2,0.3v-10.7h3.4v32.3h-3l-0.3-2.5h-0.2C111.4,195.6,109.3,196.6,106.6,196.6z M107.4,193.9
		c0.7,0,1.4-0.1,2.1-0.3c0.7-0.2,1.3-0.5,1.8-1c0.5-0.4,0.9-0.9,1.2-1.5c0.3-0.6,0.5-1.3,0.5-2v-11.8c-1.5-0.3-3-0.4-4.6-0.4
		c-2.2,0-3.9,0.7-5,2c-1.1,1.3-1.7,3.5-1.7,6.6c0,3,0.5,5.2,1.4,6.5C104,193.2,105.5,193.9,107.4,193.9z"/>
	<path class="st3" d="M130.8,196.5c-3.1,0-5.5-0.9-7.1-2.8c-1.6-1.8-2.4-4.5-2.4-8.1c0-3.7,0.8-6.6,2.4-8.5c1.6-2,3.9-2.9,6.9-2.9
		c5.2,0,7.8,3.2,7.8,9.6c0,0.6,0,1.1-0.1,1.6c0,0.5-0.1,0.9-0.1,1.2h-13.4c0.1,2.5,0.7,4.3,1.7,5.5c1,1.1,2.6,1.7,4.7,1.7
		c1,0,2-0.1,3-0.3c1.1-0.2,2.1-0.5,3.2-0.9l0.2,2.6c-1,0.4-2,0.7-3.2,0.9C133.1,196.4,131.9,196.5,130.8,196.5z M130.5,176.8
		c-3.6,0-5.5,2.4-5.8,7.3h10.6c-0.1-2.6-0.5-4.5-1.2-5.6C133.3,177.4,132.1,176.8,130.5,176.8z"/>
	<path class="st3" d="M143.2,174.6h2.8l0.2,2.4h0.2c0.9-0.5,1.8-0.9,2.6-1.3c0.8-0.4,1.5-0.7,2.2-0.9c0.7-0.2,1.3-0.4,1.9-0.5
		c0.6-0.1,1.2-0.2,1.8-0.2c1.8,0,3.1,0.5,4,1.4c0.9,0.9,1.3,2.4,1.3,4.4v16.2h-3.4V181c0-1.4-0.3-2.5-0.8-3.1
		c-0.5-0.6-1.3-0.9-2.4-0.9c-1,0-2,0.2-3.3,0.6c-1.2,0.4-2.5,1-3.8,1.7v16.8h-3.4V174.6z"/>
	<path class="st3" d="M164.7,193.9l11-16.4v-0.2h-10.7v-2.8h14.9v2.2l-11,16.4v0.2h11.4v2.8h-15.6V193.9z"/>
	<path class="st3" d="M190.1,196.6c-3.6,0-5.4-1.9-5.4-5.8v-16.2h3.4v15.2c0,1.4,0.2,2.4,0.7,3c0.5,0.6,1.3,0.9,2.5,0.9
		c1.1,0,2.3-0.2,3.5-0.7c1.2-0.5,2.4-1,3.6-1.7v-16.6h3.4v21.6H199l-0.2-2.5h-0.2c-1,0.5-1.8,0.9-2.6,1.3c-0.7,0.4-1.4,0.7-2.1,0.9
		c-0.6,0.2-1.3,0.4-1.9,0.5C191.5,196.5,190.8,196.6,190.1,196.6z"/>
	<path class="st3" d="M209.7,177.5h-4.1v-2.9h4.1v-1.2c0-1.8,0.1-3.3,0.4-4.5c0.3-1.2,0.8-2.2,1.5-2.9c0.7-0.7,1.7-1.3,2.9-1.6
		c1.2-0.3,2.7-0.5,4.5-0.6l0.2,2.6c-1.3,0.1-2.3,0.3-3.1,0.5c-0.8,0.2-1.4,0.6-1.9,1c-0.5,0.5-0.8,1.1-1,1.9
		c-0.2,0.8-0.3,1.8-0.3,3.1v1.8h5.2v2.9h-5.2v18.7h-3.4V177.5z"/>
	<path class="st3" d="M222,174.6h2.8l0.2,2.8h0.2c1.2-0.7,2.4-1.3,3.6-1.9c1.2-0.6,2.4-1,3.5-1.3h1v3.3h-1.2
		c-1.2,0.2-2.3,0.5-3.5,0.9c-1.2,0.4-2.2,0.9-3.2,1.5v16.3H222V174.6z"/>
	<path class="st3" d="M238.8,170c-1.4,0-2.1-0.7-2.1-2.1c0-1.4,0.7-2,2.1-2s2.1,0.7,2.1,2C240.9,169.3,240.2,170,238.8,170z
		 M237.1,174.6h3.4v21.6h-3.4V174.6z"/>
	<path class="st3" d="M255,196.5c-3.1,0-5.5-0.9-7.1-2.8c-1.6-1.8-2.4-4.5-2.4-8.1c0-3.7,0.8-6.6,2.4-8.5c1.6-2,3.9-2.9,6.9-2.9
		c5.2,0,7.8,3.2,7.8,9.6c0,0.6,0,1.1-0.1,1.6c0,0.5-0.1,0.9-0.1,1.2h-13.4c0.1,2.5,0.7,4.3,1.7,5.5c1,1.1,2.6,1.7,4.7,1.7
		c1,0,2-0.1,3-0.3c1.1-0.2,2.1-0.5,3.2-0.9l0.2,2.6c-1,0.4-2,0.7-3.2,0.9C257.3,196.4,256.2,196.5,255,196.5z M254.7,176.8
		c-3.6,0-5.5,2.4-5.8,7.3h10.6c-0.1-2.6-0.5-4.5-1.2-5.6C257.5,177.4,256.4,176.8,254.7,176.8z"/>
	<path class="st3" d="M274.7,196.6c-2.7,0-4.8-0.9-6.2-2.7c-1.4-1.8-2.1-4.6-2.1-8.3c0-3.8,0.9-6.6,2.7-8.5c1.8-1.9,4.3-2.9,7.4-2.9
		c0.8,0,1.6,0,2.3,0.1c0.7,0.1,1.5,0.2,2.2,0.3v-10.7h3.4v32.3h-3l-0.3-2.5H281C279.5,195.6,277.4,196.6,274.7,196.6z M275.5,193.9
		c0.7,0,1.4-0.1,2.1-0.3c0.7-0.2,1.3-0.5,1.8-1c0.5-0.4,0.9-0.9,1.2-1.5c0.3-0.6,0.5-1.3,0.5-2v-11.8c-1.5-0.3-3-0.4-4.6-0.4
		c-2.2,0-3.9,0.7-5,2c-1.1,1.3-1.7,3.5-1.7,6.6c0,3,0.5,5.2,1.4,6.5C272.2,193.2,273.6,193.9,275.5,193.9z"/>
	<path class="st3" d="M298.9,196.5c-3.1,0-5.5-0.9-7.1-2.8c-1.6-1.8-2.4-4.5-2.4-8.1c0-3.7,0.8-6.6,2.4-8.5c1.6-2,3.9-2.9,6.9-2.9
		c5.2,0,7.8,3.2,7.8,9.6c0,0.6,0,1.1-0.1,1.6c0,0.5-0.1,0.9-0.1,1.2h-13.4c0.1,2.5,0.7,4.3,1.7,5.5c1,1.1,2.6,1.7,4.7,1.7
		c1,0,2-0.1,3-0.3c1.1-0.2,2.1-0.5,3.2-0.9l0.2,2.6c-1,0.4-2,0.7-3.2,0.9C301.2,196.4,300,196.5,298.9,196.5z M298.6,176.8
		c-3.6,0-5.5,2.4-5.8,7.3h10.6c-0.1-2.6-0.5-4.5-1.2-5.6C301.4,177.4,300.2,176.8,298.6,176.8z"/>
	<path class="st3" d="M311.4,174.6h2.8l0.2,2.4h0.2c0.9-0.5,1.8-0.9,2.6-1.3c0.8-0.4,1.5-0.7,2.2-0.9c0.7-0.2,1.3-0.4,1.9-0.5
		c0.6-0.1,1.2-0.2,1.8-0.2c1.8,0,3.1,0.5,4,1.4c0.9,0.9,1.3,2.4,1.3,4.4v16.2H325V181c0-1.4-0.3-2.5-0.8-3.1
		c-0.5-0.6-1.3-0.9-2.4-0.9c-1,0-2,0.2-3.3,0.6c-1.2,0.4-2.5,1-3.8,1.7v16.8h-3.4V174.6z"/>
	<path class="st3" d="M334.3,163.8h3.4V177c1.8-1,3.4-1.7,4.7-2.1c1.3-0.5,2.5-0.7,3.7-0.7c1.8,0,3.1,0.5,4,1.4
		c0.9,0.9,1.3,2.4,1.3,4.4v16.2H348V181c0-1.4-0.3-2.5-0.8-3.1c-0.5-0.6-1.3-0.9-2.4-0.9c-1,0-2,0.2-3.2,0.6c-1.2,0.4-2.5,1-3.8,1.7
		v16.8h-3.4V163.8z"/>
	<path class="st3" d="M365.7,196.5c-3.1,0-5.5-0.9-7.1-2.8c-1.6-1.8-2.4-4.5-2.4-8.1c0-3.7,0.8-6.6,2.4-8.5c1.6-2,3.9-2.9,6.9-2.9
		c5.2,0,7.8,3.2,7.8,9.6c0,0.6,0,1.1-0.1,1.6c0,0.5-0.1,0.9-0.1,1.2h-13.4c0.1,2.5,0.7,4.3,1.7,5.5c1,1.1,2.6,1.7,4.7,1.7
		c1,0,2-0.1,3-0.3c1.1-0.2,2.1-0.5,3.2-0.9l0.2,2.6c-1,0.4-2,0.7-3.2,0.9C368,196.4,366.8,196.5,365.7,196.5z M365.4,176.8
		c-3.6,0-5.5,2.4-5.8,7.3h10.6c-0.1-2.6-0.5-4.5-1.2-5.6C368.2,177.4,367,176.8,365.4,176.8z"/>
	<path class="st3" d="M379.8,170c-1.4,0-2.1-0.7-2.1-2.1c0-1.4,0.7-2,2.1-2c1.4,0,2.1,0.7,2.1,2C382,169.3,381.3,170,379.8,170z
		 M378.2,174.6h3.4v21.6h-3.4V174.6z"/>
	<path class="st3" d="M395.6,196.4c-4,0-6-2-6-6v-13h-4.3v-3h4.4l0.5-5.4l2.7-0.4v5.8h6.1v3H393v12.3c0,2.6,1.2,3.9,3.6,3.9
		c0.4,0,0.8,0,1.2-0.1c0.5-0.1,0.9-0.2,1.4-0.3v2.7C397.9,196.3,396.8,196.4,395.6,196.4z"/>
</g>
</svg>
