<svg width="176" height="57" xmlns="http://www.w3.org/2000/svg"><defs><linearGradient x1="1.976%" y1="103.39%" y2="0%" id="a"><stop stop-color="#2686F4" offset="0%"/><stop stop-color="#12B6DD" offset="100%"/></linearGradient></defs><g fill-rule="nonzero" fill="none"><path d="M21 8h15.57A3.43 3.43 0 0 1 40 11.43v33.138A3.432 3.432 0 0 1 36.57 48H21v-8.434a3.43 3.43 0 0 0 1.963-1.551l9.706-16.567a3.434 3.434 0 0 0-2.963-5.164 3.43 3.43 0 0 0-2.962 1.7L21 27.787V8zM16.128.029c-.494.063-.95.23-1.347.472L1.646 8.529A3.43 3.43 0 0 0 0 11.459v33.136c0 1.24.66 2.328 1.645 2.93l13.136 8.027A3.43 3.43 0 0 0 20 52.619V39.742a3.43 3.43 0 0 1-2.962-1.7L7.332 21.476a3.432 3.432 0 1 1 5.925-3.465L20 29.52V3.436A3.43 3.43 0 0 0 16.128.029" fill="url(#a)"/><path d="M98.245 39.37h2.622V15.13h-2.622v24.24zm21.761-7.876c-.228 1.483-.932 2.833-1.98 3.802-1.03.95-2.28 1.452-3.615 1.452-3.13 0-5.675-2.84-5.675-6.332s2.546-6.332 5.676-6.332c3.13 0 5.677 2.84 5.678 6.33v.003c0 .362-.028.724-.082 1.077h-.002zm2.707-1.078V15.13h-2.622v8.754c-1.485-1.502-3.48-2.423-5.677-2.423-4.582 0-8.298 4.01-8.298 8.956s3.716 8.955 8.3 8.955c2.195 0 4.19-.92 5.676-2.422v2.423h2.622V30.42l-.001-.004zm13.589-6.332c2.656 0 4.89 2.044 5.507 4.796h-11.014c.617-2.752 2.85-4.796 5.506-4.796h.001zm-.001-2.623c-4.583 0-8.3 4.01-8.3 8.956 0 .368.022.73.062 1.087.1.902.33 1.785.683 2.622 1.307 3.095 4.198 5.246 7.555 5.246 3.358 0 6.25-2.15 7.556-5.245h-2.96c-.28.43-.608.826-.982 1.17-1.03.95-2.28 1.453-3.614 1.453-1.888 0-3.564-1.035-4.596-2.623a6.7 6.7 0 0 1-.995-2.622h13.892v-1.087c0-4.946-3.716-8.955-8.3-8.955l-.001-.002zm21.852-.001c-2.196 0-4.192.922-5.676 2.424V21.46h-2.623v17.91h2.623v-8.954c0-3.492 2.546-6.332 5.676-6.332.452 0 .89.06 1.31.172v-2.683a7.753 7.753 0 0 0-1.31-.112v-.001zm-86.867 0L65.07 36.03l-6.22-14.57H56l7.643 17.91h2.852l7.643-17.91h-2.852zm13.414 0c-4.583 0-8.3 4.01-8.3 8.956s3.717 8.955 8.3 8.955c4.118 0 7.535-3.234 8.187-7.477.074-.48.112-.974.112-1.477 0-4.946-3.716-8.955-8.3-8.955l.001-.002zm-.001 2.626c3.13 0 5.677 2.84 5.677 6.332 0 .362-.028.725-.082 1.078-.228 1.483-.932 2.833-1.98 3.802-1.03.95-2.28 1.452-3.615 1.452-3.13 0-5.676-2.84-5.676-6.332s2.546-6.332 5.676-6.332zm88.971-1.532c-1.197-.725-2.567-1.093-4.072-1.093-1.25 0-2.527.424-3.502 1.162-1.152.872-1.805 2.1-1.84 3.462v.246c.05 2.253 1.604 3.905 4.625 4.915.38.126.76.234 1.13.338.903.254 1.756.494 2.378.95.608.446.93.94.98 1.51.066.707-.3 1.348-.487 1.546-.4.426-1.348 1.138-3.207 1.158-1.348-.017-2.586-.544-3.562-1.412l-1.854 1.855c1.415 1.305 3.24 2.116 5.24 2.177.032.003.065.004.1.004h.143c.027 0 .055 0 .082-.002 1.5-.034 3.5-.422 4.97-1.98.637-.68 1.332-2.025 1.19-3.586-.086-.923-.51-2.26-2.044-3.384-1.005-.737-2.18-1.068-3.216-1.36-.356-.1-.692-.194-1.01-.3-2.55-.853-2.854-1.84-2.834-2.607.03-1.235 1.432-2.066 2.72-2.066 1.033 0 1.92.233 2.71.712.3.182.58.4.85.638l1.857-1.857a8.575 8.575 0 0 0-1.346-1.023l-.001-.003z" fill="#646C79"/></g></svg>